<svg height="512" width="512" xmlns="http://www.w3.org/2000/svg"><clipPath id="a"><path d="M-466.69 13.995a104.046 104.046 0 11-208.092 0 104.046 104.046 0 11208.092 0z" transform="translate(-106.34 494.851) scale(1.336)"/></clipPath><clipPath id="b"><path d="M-466.69 13.995a104.046 104.046 0 11-208.092 0 104.046 104.046 0 11208.092 0z" transform="translate(881.533 384.84) scale(2.307)"/></clipPath><g clip-path="url(#a)" transform="translate(1756.172 -630.333) scale(1.727)"><path d="M-1077.013 588.36h416.883v-21.39h-416.883z" fill="#fff"/><path d="M-1077.013 566.97h416.883v-21.382h-416.883z" fill="#ca4638"/><path d="M-1077.013 631.106h416.883v-21.38h-416.883z" fill="#fff"/><path d="M-1077.013 652.497h416.883v-21.39h-416.883zm0-42.772h416.883v-21.366h-416.883z" fill="#ca4638"/><path d="M-1077.013 544.58h416.883v-21.366h-416.883z" fill="#fff"/><path d="M-1077.013 481.452h416.883v-21.365h-416.883z" fill="#ca4638"/><path d="M-1077.013 417.317h416.883v-21.39h-416.883z" fill="#fff"/><path d="M-1077.013 438.697h416.883v-21.382h-416.883zm0 85.527h416.883v-21.406h-416.883zm0-128.297h416.883v-21.341h-416.883z" fill="#ca4638"/><path d="M-1077.013 460.087h416.883v-21.39h-416.883zm0 42.73h416.883v-21.365h-416.883z" fill="#fff"/></g><path clip-path="url(#b)" d="M-674.972 436.922h240v-259.8h-240z" fill="#356ba0" transform="translate(690.972 -161.762)"/><path d="M199.625 50.11l1.795 5.577h5.856l-4.74 3.445 1.834 5.577-4.743-3.448-4.78 3.448 1.834-5.577-4.74-3.445h5.856l1.829-5.576m-.001 48.977l1.795 5.573h5.856l-4.74 3.448 1.834 5.573-4.743-3.408-4.78 3.408 1.834-5.573-4.74-3.448h5.856l1.829-5.573m-.001 49.003l1.795 5.587h5.856l-4.74 3.435 1.834 5.586-4.743-3.448-4.78 3.448 1.834-5.586-4.74-3.435h5.856l1.829-5.587m-.001 50.089l1.795 5.613h5.856l-4.74 3.448 1.834 5.613-4.743-3.487-4.78 3.487 1.834-5.613-4.74-3.448h5.856l1.829-5.613m-.001 47.862l1.795 5.587h5.856l-4.74 3.474 1.834 5.573-4.743-3.474-4.78 3.474 1.834-5.573-4.74-3.474h5.856l1.829-5.587M155.687 50.11l1.808 5.577h5.882l-4.757 3.445 1.809 5.577-4.74-3.448-4.754 3.448 1.803-5.577-4.74-3.445h5.882l1.808-5.576m-.001 48.977l1.808 5.573h5.882l-4.757 3.448 1.809 5.573-4.74-3.408-4.754 3.408 1.803-5.573-4.74-3.448h5.882l1.808-5.573m-.001 49.003l1.808 5.587h5.882l-4.757 3.435 1.809 5.586-4.74-3.448-4.754 3.448 1.803-5.586-4.74-3.435h5.882l1.808-5.587m-.001 50.089l1.808 5.613h5.882l-4.757 3.448 1.809 5.613-4.74-3.487-4.754 3.487 1.803-5.613-4.74-3.448h5.882l1.808-5.613m-.001 47.862l1.808 5.587h5.882l-4.757 3.474 1.809 5.573-4.74-3.474-4.754 3.474 1.803-5.573-4.74-3.474h5.882l1.808-5.587M111.784 99.088l1.795 5.573h5.856l-4.74 3.448 1.829 5.573-4.74-3.408-4.78 3.408 1.835-5.573-4.744-3.448h5.846l1.842-5.573m.001 49.003l1.795 5.587h5.856l-4.74 3.435 1.829 5.586-4.74-3.448-4.78 3.448 1.835-5.586-4.744-3.435h5.846l1.842-5.587m.001 50.089l1.795 5.613h5.856l-4.74 3.448 1.829 5.613-4.74-3.487-4.78 3.487 1.835-5.613-4.744-3.448h5.846l1.842-5.613m.001 47.862l1.795 5.587h5.856l-4.74 3.474 1.829 5.573-4.74-3.474-4.78 3.474 1.835-5.573-4.744-3.474h5.846l1.842-5.587m-43.95-97.951l1.806 5.587h5.881l-4.74 3.435 1.808 5.586-4.753-3.448-4.744 3.448 1.808-5.586-4.753-3.435h5.856l1.834-5.587m-.003 50.089l1.806 5.613h5.881l-4.74 3.448 1.808 5.613-4.753-3.487-4.744 3.487 1.808-5.613-4.753-3.448h5.856l1.834-5.613m-.003 47.862l1.806 5.587h5.881l-4.74 3.474 1.808 5.573-4.753-3.474-4.744 3.474 1.808-5.573-4.753-3.474h5.856l1.834-5.587M222.014 74.573l1.806 5.613h5.882l-4.754 3.408 1.808 5.613-4.74-3.444-4.757 3.444 1.822-5.613-4.754-3.408h5.869l1.821-5.613m-.003 50.591l1.806 5.577h5.882l-4.754 3.444 1.808 5.577-4.74-3.448-4.757 3.448 1.822-5.577-4.754-3.444h5.869l1.821-5.577m-.452 49.568l1.821 5.573h5.87l-4.745 3.448 1.809 5.574-4.754-3.475-4.74 3.475 1.806-5.574-4.754-3.448h5.882l1.808-5.573m-.44 48.974l1.822 5.577h5.882l-4.767 3.444 1.83 5.577-4.767-3.435-4.727 3.435 1.808-5.577-4.77-3.444h5.882l1.808-5.577M178.073 74.573l1.821 5.613h5.882l-4.767 3.408 1.83 5.613-4.767-3.444-4.753 3.444 1.834-5.613-4.744-3.408h5.856l1.808-5.613m0 50.591l1.821 5.577h5.882l-4.767 3.444 1.83 5.577-4.767-3.448-4.753 3.448 1.834-5.577-4.744-3.444h5.856l1.808-5.577m-.423 49.568l1.808 5.573h5.881l-4.74 3.448 1.806 5.574-4.754-3.475-4.74 3.475 1.808-5.574-4.756-3.448h5.858l1.83-5.573m-.438 48.974l1.808 5.577h5.87l-4.741 3.444 1.808 5.577-4.744-3.435-4.753 3.435 1.808-5.577-4.74-3.444h5.869l1.818-5.577M134.147 72.844l1.819 5.574h5.869l-4.74 3.447 1.82 5.574-4.765-3.445-4.744 3.445 1.821-5.574-4.753-3.447h5.869l1.808-5.574m-.004 50.552l1.819 5.573h5.869l-4.74 3.475 1.82 5.547-4.765-3.409-4.744 3.409 1.821-5.547-4.753-3.475h5.869l1.808-5.573m-.427 49.568l1.79 5.573h5.882l-4.754 3.448 1.822 5.573-4.74-3.447-4.77 3.447 1.82-5.573-4.74-3.448h5.87l1.82-5.573m-.449 49l1.821 5.586h5.869l-4.744 3.409 1.809 5.613-4.754-3.448-4.74 3.448 1.806-5.613-4.754-3.409h5.869l1.821-5.586m-43.033-99.067l1.803 5.574h5.872l-4.757 3.487 1.808 5.573-4.727-3.473-4.766 3.473 1.829-5.573-4.754-3.487h5.87l1.82-5.574m-.434 49.565l1.795 5.586h5.882l-4.754 3.474 1.819 5.574-4.74-3.47-4.754 3.47 1.806-5.574-4.74-3.474h5.855l1.835-5.586m-.453 48.977l1.82 5.587h5.87l-4.754 3.473 1.803 5.574-4.74-3.474-4.74 3.474 1.808-5.574-4.757-3.473h5.869l1.821-5.587m-43.506-49.824l1.821 5.577h5.869l-4.754 3.445 1.822 5.576-4.757-3.447-4.74 3.447 1.808-5.576-4.753-3.445h5.882l1.805-5.577m-.423 48.977l1.792 5.574h5.882l-4.753 3.448 1.821 5.573-4.74-3.444-4.77 3.444 1.821-5.573-4.74-3.448h5.869l1.821-5.574M243.54 50.11l1.796 5.577h5.881l-4.74 3.445 1.803 5.577-4.74-3.448-4.753 3.448 1.808-5.577-4.744-3.445h5.87l1.82-5.576m-.001 48.977l1.796 5.573h5.881l-4.74 3.448 1.803 5.573-4.74-3.408-4.753 3.408 1.808-5.573-4.744-3.448h5.87l1.82-5.573m-.001 49.003l1.796 5.587h5.881l-4.74 3.435 1.803 5.586-4.74-3.448-4.753 3.448 1.808-5.586-4.744-3.435h5.87l1.82-5.587m-.001 50.089l1.796 5.613h5.881l-4.74 3.448 1.803 5.613-4.74-3.487-4.753 3.487 1.808-5.613-4.744-3.448h5.87l1.82-5.613m-.001 47.862l1.796 5.587h5.881l-4.74 3.474 1.803 5.573-4.74-3.474-4.753 3.474 1.808-5.573-4.744-3.474h5.87l1.82-5.587M222.014 27.85l1.806 5.586h5.882l-4.74 3.474 1.808 5.574-4.754-3.475-4.744 3.475 1.809-5.574-4.754-3.474h5.856l1.834-5.587M27.427 246.042l1.805 5.587h5.882l-4.74 3.474 1.808 5.573-4.753-3.474-4.744 3.474 1.808-5.573-4.753-3.474h5.856l1.834-5.587m4.037-47.862l1.806 5.613h5.882l-4.74 3.448 1.808 5.613-4.754-3.487-4.743 3.487 1.808-5.613-4.754-3.448h5.856l1.835-5.613M178.073 32.146l1.821 5.613h5.882l-4.767 3.409 1.83 5.613-4.767-3.445-4.753 3.445 1.834-5.613-4.744-3.409h5.856l1.808-5.613" fill="#fff"/></svg>