<svg height="512" width="512" xmlns="http://www.w3.org/2000/svg"><clipPath id="a"><path d="M-479.992 20.216a156.8 156.8 0 11-.008 1.602" transform="translate(740.133 -223.272) scale(1.499)"/></clipPath><g clip-path="url(#a)" transform="translate(-4.859 450.528) scale(1.021)"><path d="M463.942 49.442c17.509 0 31.593-14.116 31.593-31.625v-416.782a31.517 31.517 0 00-31.593-31.593H47.16c-17.509 0-31.625 14.084-31.625 31.593V17.817c0 17.509 14.116 31.625 31.625 31.625z" fill="#fff"/><path d="M495.535-398.965c0-17.509-14.437-31.593-32.345-31.593H335.535v480H463.19c17.908 0 32.345-14.116 32.345-31.625z" fill="#e74c3c"/><path d="M15.535 17.848c0 17.509 14.438 31.594 32.345 31.594h127.655v-480H47.88c-17.907 0-32.345 14.115-32.345 31.625z" fill="#356ba0"/></g><g clip-path="url(#a)" transform="translate(-4.859 450.528) scale(1.021)"><path d="M463.942 49.442c17.509 0 31.593-14.116 31.593-31.625v-416.782a31.517 31.517 0 00-31.593-31.593H47.16c-17.509 0-31.625 14.084-31.625 31.593V17.817c0 17.509 14.116 31.625 31.625 31.625z" fill="#fff"/><path d="M495.535-398.965c0-17.509-14.437-31.593-32.345-31.593H335.535v480H463.19c17.908 0 32.345-14.116 32.345-31.625z" fill="#e74c3c"/><path d="M15.535 17.848c0 17.509 14.438 31.594 32.345 31.594h127.655v-480H47.88c-17.907 0-32.345 14.115-32.345 31.625z" fill="#356ba0"/></g></svg>