<svg id="svg4408" height="512" width="512" xmlns="http://www.w3.org/2000/svg" xmlns:xlink="http://www.w3.org/1999/xlink" xmlns:cc="http://creativecommons.org/ns#" xmlns:dc="http://purl.org/dc/elements/1.1/" xmlns:inkscape="http://www.inkscape.org/namespaces/inkscape" xmlns:rdf="http://www.w3.org/1999/02/22-rdf-syntax-ns#" xmlns:sodipodi="http://sodipodi.sourceforge.net/DTD/sodipodi-0.dtd" xmlns:svg="http://www.w3.org/2000/svg"><clipPath id="clipPath3146"><path id="path3148" d="m-479.99183 20.215956a156.8 156.8 0 1 1 -.008 1.602218" transform="matrix(1.499 0 0 1.499 740.133 -223.272)"/></clipPath><g id="layer1" transform="translate(0 448)"><g id="g3139" clip-path="url(#clipPath3146)" transform="matrix(1.021 0 0 1.021 -4.859 2.528)"><path id="rect4416" d="m463.94152 49.44157c17.50913 0 31.59375-14.11586 31.59375-31.625v-416.78125c0-17.50914-14.08462-31.59375-31.59375-31.59375h-416.78126c-17.50914 0-31.625 14.08461-31.625 31.59375v416.78125c0 17.50914 14.11586 31.625 31.625 31.625z" fill="#fff"/><path id="rect4416-0" d="m495.53527-398.96468c0-17.50913-14.43731-31.59375-32.34518-31.59375h-127.65482v480h127.65482c17.90787 0 32.34518-14.11586 32.34518-31.625z" fill="#c0392b"/><path id="rect4416-0-1" d="m15.53526 17.84782c0 17.50913 14.437316 31.59375 32.345186 31.59375h127.654814v-480h-127.654814c-17.90787 0-32.345186 14.11586-32.345186 31.625z" fill="#27ae60"/></g></g></svg>