<svg id="svg29881" height="512" width="512" xmlns="http://www.w3.org/2000/svg" xmlns:xlink="http://www.w3.org/1999/xlink" xmlns:cc="http://creativecommons.org/ns#" xmlns:dc="http://purl.org/dc/elements/1.1/" xmlns:inkscape="http://www.inkscape.org/namespaces/inkscape" xmlns:rdf="http://www.w3.org/1999/02/22-rdf-syntax-ns#" xmlns:sodipodi="http://sodipodi.sourceforge.net/DTD/sodipodi-0.dtd" xmlns:svg="http://www.w3.org/2000/svg"><clipPath id="clipPath29920"><path id="path29922" d="m-254.28571 506.64789a260 248.57143 0 1 1 -520 0 260 248.57143 0 1 1 520 0z" transform="matrix(.685 0 0 .716 705.099 116.389)"/></clipPath><g id="layer1" transform="translate(0 -540.362)"><g id="g29962" transform="translate(-246.857 429.714)"><g id="g29913" clip-path="url(#clipPath29920)" transform="matrix(1.348 0 0 1.348 27.194 -279.408)"><path id="path17502" d="m118.94186 663.55308h556.402v-370.95322h-556.402z" fill="#fff"/></g></g><path id="path3007" d="m-665.71429-79.428574c0 66.27417-53.72583 120-120 120s-120-53.72583-120-120c0-66.274166 53.72583-119.999996 120-119.999996s120 53.72583 120 119.999996z" fill="#c0392b" transform="matrix(.875 0 0 .875 943.5 865.862)"/></g></svg>