<svg id="svg29881" height="512" width="512" xmlns="http://www.w3.org/2000/svg" xmlns:xlink="http://www.w3.org/1999/xlink" xmlns:cc="http://creativecommons.org/ns#" xmlns:dc="http://purl.org/dc/elements/1.1/" xmlns:inkscape="http://www.inkscape.org/namespaces/inkscape" xmlns:rdf="http://www.w3.org/1999/02/22-rdf-syntax-ns#" xmlns:sodipodi="http://sodipodi.sourceforge.net/DTD/sodipodi-0.dtd" xmlns:svg="http://www.w3.org/2000/svg"><clipPath id="clipPath29920"><path id="path29922" d="m-254.28571 506.64789a260 248.57143 0 1 1 -520 0 260 248.57143 0 1 1 520 0z" transform="matrix(.685 0 0 .716 705.099 116.389)"/></clipPath><g id="layer1" transform="translate(0 -540.362)"><path id="path3798" d="m3062.8571 2569.1428c0 492.3224-388.8727 891.4286-868.5715 891.4286-479.6987 0-868.5714-399.1062-868.5714-891.4286s388.8727-891.4286 868.5714-891.4286c479.6988 0 868.5715 399.1062 868.5715 891.4286z" fill="#c0392b" transform="matrix(.276 0 0 .269 -350.316 104.67)"/><g id="g29913" clip-path="url(#clipPath29920)" fill="#ca4638" transform="matrix(1.348 0 0 1.348 -219.663 150.307)"/><g id="g5869" fill="#fff" transform="matrix(1.2 0 0 1.2 1566.496 -895.863)"><path id="path6120" d="m-1102.1149 1484.4596c-41.0509 0-74.2997-33.2466-74.2997-74.2788 0-40.9881 33.2488-74.2633 74.2997-74.2633 20.4566 0 38.9832 8.2708 52.382 21.6674-16.6244-23.7914-44.1939-39.3406-75.3749-39.3406-50.783 0-91.9718 41.1601-91.9718 91.9365 0 50.8116 41.1888 91.9497 91.9718 91.9497 31.181 0 58.7505-15.5712 75.3749-39.3185-13.3988 13.3437-31.9254 21.6476-52.382 21.6476"/><path id="path6122" d="m-1013.0931 1370.7675 17.14826 24.7463 28.86524-8.6788-18.25099 23.9832 17.14821 24.7905-28.42413-9.9824-18.25099 23.9811.6617-30.1302-28.4242-9.9846 28.8653-8.595z"/></g></g></svg>