<?xml version="1.0" standalone="no"?>
<!DOCTYPE svg PUBLIC "-//W3C//DTD SVG 20010904//EN"
 "http://www.w3.org/TR/2001/REC-SVG-20010904/DTD/svg10.dtd">
<svg version="1.0" xmlns="http://www.w3.org/2000/svg"
 width="700.000000pt" height="700.000000pt" viewBox="0 0 700.000000 700.000000"
 preserveAspectRatio="xMidYMid meet">
<metadata>
Created by potrace 1.14, written by Peter Selinger 2001-2017
</metadata>
<g transform="translate(0.000000,700.000000) scale(0.100000,-0.100000)"
fill="#000000" stroke="none">
<path d="M573 6409 c-131 -22 -283 -106 -373 -207 -62 -69 -134 -212 -152
-302 -20 -97 -19 -4705 0 -4800 50 -239 247 -440 492 -501 81 -21 5837 -21
5920 0 184 45 351 177 435 343 70 141 66 -49 63 2588 l-3 2375 -22 65 c-54
156 -171 296 -309 367 -156 81 -114 77 -814 81 -568 3 -628 2 -656 -13 -60
-32 -72 -105 -25 -157 l29 -33 629 -5 c552 -5 633 -7 669 -22 136 -54 221
-138 275 -273 l24 -60 3 -1990 2 -1990 -1152 1153 -1153 1152 -45 0 -45 0
-230 -234 c-126 -128 -463 -465 -748 -747 l-518 -513 -192 191 c-195 195 -219
212 -274 199 -19 -5 -357 -335 -1063 -1042 l-1036 -1035 -18 38 c-48 98 -46
-7 -46 2448 0 2531 -3 2390 59 2499 34 58 119 144 170 171 105 54 -38 50 1924
55 l1809 5 29 33 c45 51 36 122 -21 155 -26 16 -164 17 -1807 16 -978 -1
-1801 -5 -1830 -10z m2489 -4206 c389 -389 638 -631 654 -635 16 -4 42 -1 66
9 l40 16 119 -120 120 -119 -15 -29 c-25 -48 -20 -83 18 -121 39 -39 85 -45
125 -18 23 17 25 15 230 -190 l206 -206 -2020 2 -2020 3 -57 23 c-32 13 -61
28 -64 34 -6 9 1952 1978 1966 1978 2 0 287 -282 632 -627z"/>
<path d="M4658 6405 c-35 -19 -48 -44 -48 -90 0 -75 65 -120 133 -92 70 30 89
103 40 157 -34 37 -85 47 -125 25z"/>
<path d="M1715 5524 c-211 -51 -337 -124 -440 -256 -102 -131 -147 -261 -148
-433 0 -181 61 -337 185 -470 147 -158 309 -229 518 -228 115 0 196 20 310 76
169 82 311 261 360 453 40 156 22 308 -55 469 -87 180 -232 306 -420 365 -68
21 -260 36 -310 24z m258 -225 c200 -67 337 -255 337 -463 0 -113 -31 -206
-99 -296 -130 -173 -352 -239 -561 -165 -147 52 -276 203 -309 363 -33 158 17
321 133 438 62 62 111 93 201 125 73 26 216 25 298 -2z"/>
</g>
</svg>
