<svg height="512" viewBox="0 0 16.933 16.933" width="512" xmlns="http://www.w3.org/2000/svg"><path d="M2.987 3.362l1.588 1.587c.25.25.625-.125.375-.375L3.362 2.987a.265.265 0 10-.375.375zm3.598-1.778a.265.265 0 00-.235.268v1.851a.265.265 0 10.53 0V1.852a.265.265 0 00-.295-.268zM1.852 6.88h1.852c.353 0 .353-.53 0-.53H1.839c-.367.018-.34.548.013.53zm10.131 5.478l1.588 1.587c.25.25.625-.125.375-.375l-1.588-1.587a.265.265 0 10-.375.375zm-1.695.603a.265.265 0 00-.234.268v1.851a.265.265 0 10.529 0v-1.85a.265.265 0 00-.295-.268zm2.942-2.908a.265.265 0 100 .53h1.85a.265.265 0 100-.53z" fill="#33658a"/><path d="M12.958.53a3.44 3.44 0 00-2.436 1.011l-3.69 3.686c-.282.282-.5.603-.662.941a3.44 3.44 0 011.498-.347c.272 0 .543.036.809.1L11.69 2.71a1.787 1.787 0 012.537 0c.706.706.706 1.83 0 2.535l-3.691 3.688a1.783 1.783 0 01-2.535 0 1.78 1.78 0 01-.515-1.451A1.78 1.78 0 006.401 8l-.477.476a3.443 3.443 0 005.78 1.625l3.691-3.688a3.442 3.442 0 000-4.87A3.441 3.441 0 0012.958.528z" fill="#33b9ef"/><path d="M3.978 16.401a3.44 3.44 0 002.436-1.012l3.69-3.685c.282-.282.5-.604.663-.942a3.44 3.44 0 01-1.499.347 3.46 3.46 0 01-.809-.1l-3.213 3.212a1.787 1.787 0 01-2.537 0 1.782 1.782 0 010-2.535L6.4 8a1.783 1.783 0 012.536 0c.4.4.568.934.514 1.45.395-.04.78-.211 1.086-.517l.477-.477a3.443 3.443 0 00-5.78-1.625L1.54 10.519a3.442 3.442 0 000 4.871 3.441 3.441 0 002.437 1.012z" fill="#33658a"/></svg>