<svg height="512" width="512" xmlns="http://www.w3.org/2000/svg"><path d="M419.66 96.65v94.73c0 4.71-3.81 8.52-8.52 8.52H365.9c-4.7 0-8.51-3.81-8.51-8.52v-32.45a8.52 8.52 0 00-8.52-8.52h-53.21c-4.71 0-8.52 3.81-8.52 8.52v234.14c0 4.71 3.81 8.52 8.52 8.52h23.27c4.71 0 8.52 3.81 8.52 8.52v45.24c0 4.7-3.81 8.51-8.52 8.51H193.07c-4.71 0-8.52-3.81-8.52-8.51v-45.24c0-4.71 3.81-8.52 8.52-8.52h23.27c4.71 0 8.52-3.81 8.52-8.52V158.93c0-4.71-3.81-8.52-8.52-8.52h-53.21a8.52 8.52 0 00-8.52 8.52v32.45c0 4.71-3.81 8.52-8.51 8.52h-45.24c-4.71 0-8.52-3.81-8.52-8.52V96.65c0-4.7 3.81-8.51 8.52-8.51h310.28c4.71 0 8.52 3.81 8.52 8.51z" fill="#334973"/><path d="M15 114.235c-8.284 0-15-6.716-15-15V15C0 6.716 6.716 0 15 0h84.235c8.284 0 15 6.716 15 15s-6.716 15-15 15H30v69.235c0 8.285-6.716 15-15 15z" fill="#7ed8f6"/><path d="M497 114.235c-8.284 0-15-6.716-15-15V30h-69.235c-8.284 0-15-6.716-15-15s6.716-15 15-15H497c8.284 0 15 6.716 15 15v84.235c0 8.285-6.716 15-15 15zM497 512h-84.235c-8.284 0-15-6.716-15-15s6.716-15 15-15H482v-69.235c0-8.284 6.716-15 15-15s15 6.716 15 15V497c0 8.284-6.716 15-15 15z" fill="#6aa9ff"/><path d="M99.235 512H15c-8.284 0-15-6.716-15-15v-84.235c0-8.284 6.716-15 15-15s15 6.716 15 15V482h69.235c8.284 0 15 6.716 15 15s-6.715 15-15 15z" fill="#7ed8f6"/><path d="M419.66 96.65v94.73c0 4.71-3.81 8.52-8.52 8.52H365.9c-4.7 0-8.51-3.81-8.51-8.52v-32.45a8.52 8.52 0 00-8.52-8.52h-53.21c-4.71 0-8.52 3.81-8.52 8.52v234.14c0 4.71 3.81 8.52 8.52 8.52h23.27c4.71 0 8.52 3.81 8.52 8.52v45.24c0 4.7-3.81 8.51-8.52 8.51H256V88.14h155.14c4.71 0 8.52 3.81 8.52 8.51z" fill="#1f3259"/></svg>