<svg width="2420" height="572" fill="none" xmlns="http://www.w3.org/2000/svg"><g clip-path="url(#clip0_2005_545)"><mask id="a" style="mask-type:alpha" maskUnits="userSpaceOnUse" x="0" y="0" width="2420" height="572"><path fill="#D9D9D9" d="M0 0h2420v572H0z"/></mask><g mask="url(#a)"><path d="M10.3 63.124v442.501c0 29.5 23.9 53.3 53.3 53.3h549.401c29.5 0 53.3-23.9 53.3-53.3v-442.5c0-29.5-23.9-53.3-53.3-53.3h-549.3c-29.5-.1-53.4 23.8-53.4 53.3z" fill="#fff"/><path d="M41.9 9.8h99.601v131.201h-131.2v-97.4L41.9 9.8zm592.9 0h-99.7v131.201h131.2v-97.4L634.8 9.8zM141.501 272.199v131.2h-131.2v-131.2h131.2z" fill="#969696"/><path d="M272.7 141v131.2H141.5V141h131.2zm0 262.398v131.2H141.5v-131.2h131.2z" fill="#969696"/><path d="M403.899 9.8v131.201h-131.2V9.801h131.2zm0 262.399v131.2h-131.2v-131.2h131.2zM535.1 141v131.2H403.9V141h131.2zm0 262.398v131.2H403.9v-131.2h131.2zm131.2-131.199v131.2H535.1v-131.2h131.2z" fill="#969696"/><path d="M666.299 505.564v-38.4l-239-239-330.6 330.6c.9.1 1.8.1 2.7.1H613c29.5.1 53.3-23.8 53.3-53.3z" fill="#00A570"/><path d="M25.906 543.288c9.7 9.7 23 15.599 37.7 15.599h394.1l-223.7-223.699-208.1 208.1z" fill="#36D28F"/><path d="M25.906 543.288l208.1-208.1 127.7 127.7m-84.622-84.651l150.2-150.1 234.7 234.7" stroke="#000" stroke-width="20" stroke-miterlimit="10" stroke-linecap="round" stroke-linejoin="round"/><path d="M232.65 154.246c0 32-26 58-58 58s-58-26-58-58 26-58 58-58 58 26 58 58z" fill="#FFB954"/><path d="M232.65 154.246c0 32-26 58-58 58s-58-26-58-58 26-58 58-58 58 26 58 58z" stroke="#000" stroke-width="20" stroke-miterlimit="10" stroke-linecap="round" stroke-linejoin="round"/><path d="M402.734 9.723h-339.1c-29.5 0-53.3 23.9-53.3 53.3v442.5c0 29.5 23.9 53.3 53.3 53.3h549.3c29.5 0 53.3-23.9 53.3-53.3v-442.5c0-29.5-23.9-53.3-53.3-53.3h-108.8" stroke="#000" stroke-width="20" stroke-miterlimit="10" stroke-linecap="round" stroke-linejoin="round"/><path d="M804.4 377V167h94.5c13.4 0 25.5 2.9 36.4 8.7 10.9 5.8 19.4 13.8 25.7 23.8 6.2 10.1 9.3 21.6 9.3 34.4 0 13.2-3.1 25.1-9.3 35.6-6.2 10.5-14.7 18.8-25.5 24.8s-23 9-36.6 9H853V377h-48.6zM853 264.2h41.4c5.2 0 9.8-1.1 13.6-3.5 3.9-2.3 6.9-5.5 9-9.8 2.1-4.2 3.2-9 3.2-14.4s-1.2-10.1-3.6-14.3c-2.4-4.1-5.8-7.2-10.3-9.5-4.5-2.2-10-3.3-16.3-3.3h-37v54.8zM920.8 377l-53.4-94.8 52.2-7.5L979 377h-58.2zm159 3c-17.6 0-32.9-3.5-45.9-10.7-13-7.1-23.1-16.8-30.3-29.1-7.199-12.3-10.799-26.3-10.799-42.1 0-12.2 2-23.4 6-33.6 3.999-10.2 9.599-19 16.799-26.5 7.2-7.5 15.8-13.3 25.7-17.4 9.9-4.1 20.7-6.1 32.5-6.1 11.2 0 21.5 2 30.8 6s17.3 9.6 24.1 16.8c6.8 7.2 12 15.7 15.6 25.5 3.6 9.8 5.2 20.5 4.8 32.1l-.3 12.9h-126.9l-6.9-27h94.8l-5.1 5.7v-6c-.4-5-1.9-9.4-4.6-13.4-2.7-3.9-6.3-6.9-10.7-9.1-4.4-2.2-9.4-3.3-15-3.3-7.8 0-14.5 1.6-20 4.6-5.5 3.1-9.7 7.6-12.4 13.5-2.8 5.9-4.2 13.2-4.2 21.8 0 8.8 1.8 16.5 5.5 23s9.1 11.5 16.2 15.1c7.1 3.6 15.5 5.4 25.3 5.4 6.8 0 12.8-1 18.2-3 5.3-2 11-5.4 17.3-10.2l22.5 31.8c-6.2 5.4-12.8 9.8-19.8 13.2-7 3.4-14.2 6-21.5 7.7-7.3 1.5-14.5 2.4-21.7 2.4zm99.6-3.001v-159.3h45.6l1.5 28.8-6.3.3c2.4-5.2 5.4-9.8 9.2-13.8 3.7-4 7.9-7.4 12.6-10 4.7-2.7 9.6-4.7 14.7-6.2 5.1-1.4 10.2-2.1 15.5-2.1 7.8 0 14.9 1.2 21.3 3.6 6.4 2.4 12 6.3 16.8 11.6 4.8 5.3 8.6 12.4 11.4 21.4l-7.5-.6 2.4-4.8c2.6-4.8 5.9-9.1 10.1-13 4.1-3.9 8.6-7.2 13.6-9.9s10.2-4.7 15.6-6.2c5.4-1.4 10.6-2.1 15.6-2.1 12.6 0 23.1 2.5 31.5 7.3 8.4 4.9 14.7 12.3 19 22.1 4.3 9.8 6.5 21.7 6.5 35.7v97.2h-48.3v-93.3c0-6.4-.9-11.7-2.7-15.9-1.8-4.2-4.5-7.3-8-9.4-3.5-2.1-7.9-3.1-13-3.1-4.2 0-8.1.7-11.5 2.1-3.5 1.4-6.5 3.3-9 5.7-2.5 2.4-4.5 5.2-5.9 8.4-1.4 3.2-2.1 6.8-2.1 10.8v94.7h-48.3v-93.6c0-6-.9-11.1-2.7-15.3-1.8-4.2-4.5-7.4-8.1-9.6-3.6-2.2-7.8-3.3-12.6-3.3-4.2 0-8.1.7-11.5 2.1-3.5 1.4-6.5 3.3-9 5.7-2.5 2.4-4.5 5.2-5.8 8.4-1.4 3.2-2.1 6.7-2.1 10.5v95.1h-48.5zm363.9 3.003c-16.6 0-31.3-3.6-44.3-10.8-12.9-7.2-23.1-17-30.6-29.4-7.5-12.4-11.3-26.6-11.3-42.6s3.8-30.2 11.3-42.6c7.5-12.4 17.7-22.2 30.6-29.4 12.9-7.2 27.6-10.8 44.3-10.8 16.6 0 31.4 3.6 44.3 10.8 12.9 7.2 23 17 30.5 29.4 7.4 12.4 11.1 26.6 11.1 42.6s-3.7 30.2-11.1 42.6c-7.4 12.4-17.5 22.2-30.5 29.4-13 7.2-27.7 10.8-44.3 10.8zm0-41.4c7.2 0 13.6-1.8 19.2-5.4 5.6-3.6 10-8.5 13.2-14.7 3.2-6.2 4.7-13.3 4.5-21.3.2-8-1.3-15.2-4.5-21.5-3.2-6.3-7.6-11.3-13.2-14.9-5.6-3.6-12-5.4-19.2-5.4-7.2 0-13.6 1.8-19.3 5.4-5.7 3.6-10.2 8.6-13.4 14.9-3.2 6.3-4.7 13.5-4.5 21.5-.2 8 1.3 15.1 4.5 21.3 3.2 6.2 7.7 11.1 13.4 14.7 5.6 3.6 12.1 5.4 19.3 5.4zm161.7 38.397l-66.6-159.3h53.1l39.6 119.1-11.7 1.2 40.8-120.3h52.5l-69.9 159.3H1705zM1909 380c-17.6 0-32.9-3.5-45.9-10.7-13-7.1-23.1-16.8-30.3-29.1-7.2-12.3-10.8-26.3-10.8-42.1 0-12.2 2-23.4 6-33.6 4-10.2 9.6-19 16.8-26.5 7.2-7.5 15.8-13.3 25.7-17.4 9.9-4.1 20.7-6.1 32.5-6.1 11.2 0 21.5 2 30.8 6s17.3 9.6 24.1 16.8c6.8 7.2 12 15.7 15.6 25.5 3.6 9.8 5.2 20.5 4.8 32.1l-.3 12.9h-126.9l-6.9-27h94.8l-5.1 5.7v-6c-.4-5-1.9-9.4-4.6-13.4-2.7-3.9-6.3-6.9-10.7-9.1-4.4-2.2-9.4-3.3-15-3.3-7.8 0-14.5 1.6-20 4.6-5.5 3.1-9.7 7.6-12.4 13.5-2.8 5.9-4.2 13.2-4.2 21.8 0 8.8 1.8 16.5 5.5 23s9.1 11.5 16.2 15.1c7.1 3.6 15.5 5.4 25.3 5.4 6.8 0 12.8-1 18.2-3 5.3-2 11-5.4 17.3-10.2l22.5 31.8c-6.2 5.4-12.8 9.8-19.8 13.2-7 3.4-14.2 6-21.5 7.7-7.3 1.5-14.5 2.4-21.7 2.4zm105-3V167h92.7c14.4 0 26.6 2.1 36.6 6.1 10 4.1 17.5 10 22.6 17.7 5.1 7.7 7.7 16.9 7.7 27.8 0 12-3 22.1-8.8 30.3-5.9 8.2-14.5 13.7-25.7 16.5l-.6-5.7c9.4 2 17.5 5.5 24.4 10.5 6.9 5 12.2 11.2 16.1 18.4 3.8 7.3 5.7 15.6 5.7 24.8 0 10.6-1.8 19.9-5.4 27.8-3.6 7.9-8.8 14.5-15.6 19.9-6.8 5.4-14.8 9.4-23.8 12-9.1 2.6-19.2 3.9-30.2 3.9H2014zm48-125.7h37.5c5.2 0 9.6-.8 13.3-2.5 3.7-1.7 6.5-4.1 8.4-7.2 1.9-3.1 2.8-6.8 2.8-11.3 0-6.4-2.2-11.4-6.6-15.1-4.4-3.7-11-5.5-19.8-5.5H2062v41.6zm0 83.1h45.9c5.6 0 10.4-.9 14.3-2.7 3.9-1.8 6.9-4.4 9.2-8 2.2-3.5 3.3-7.7 3.3-12.8 0-4.6-1.2-8.5-3.5-11.7-2.3-3.2-5.5-5.6-9.8-7.3-4.2-1.7-9.2-2.6-15-2.6H2062v45.1zm259.8 45.601c-16.8 0-32-2.7-45.6-8.1-13.6-5.4-25.3-13-35.1-22.8s-17.3-21.3-22.5-34.6c-5.2-13.3-7.8-27.8-7.8-43.4 0-15.6 2.7-29.9 8.3-43.1 5.5-13.1 13.3-24.5 23.5-34.3 10.2-9.8 22.2-17.4 36.1-22.8 13.9-5.4 29-8.1 45.5-8.1 11.6 0 22.5 1.5 32.9 4.5 10.3 3 19.6 7.1 28 12.3 8.4 5.2 15.5 11.2 21.3 18l-30.9 32.7c-5-4.8-10.2-8.8-15.4-12-5.3-3.2-11-5.7-17-7.6-6-1.9-12.4-2.9-19.2-2.9-8.8 0-16.9 1.6-24.2 4.8-7.3 3.2-13.7 7.6-19.2 13.4-5.5 5.7-9.8 12.4-12.8 20.1-3 7.7-4.5 16.1-4.5 25.1s1.6 17.4 4.8 25.2c3.2 7.8 7.6 14.6 13.2 20.3 5.6 5.7 12.2 10.2 19.9 13.5 7.7 3.3 15.9 5 24.8 5 6.2 0 12-1 17.6-3 5.5-2 10.2-4.7 14.3-8.1 4-3.4 7.2-7.4 9.6-12.2 2.4-4.7 3.6-9.8 3.6-15.1v-7.8l6.6 10.2h-57.9v-39.9h98.7c.4 2.2.7 5.2.9 9 .2 3.8.3 7.5.4 11.1.1 3.6.2 6.3.2 8.1 0 13.6-2.5 26.1-7.3 37.4-4.9 11.3-11.8 21.1-20.6 29.3s-19.2 14.6-31.2 19.2c-12 4.3-25 6.6-39 6.6z" fill="#000"/></g></g><defs><clipPath id="clip0_2005_545"><path fill="#fff" d="M0 0h2420v572H0z"/></clipPath></defs></svg>