<svg version="1.1" id="svg2451" xmlns="http://www.w3.org/2000/svg" x="0" y="0" viewBox="0 0 2422.9 682.7" xml:space="preserve"><style>.st1{fill:#969696}.st5{fill:none;stroke:#000;stroke-width:20;stroke-linecap:round;stroke-linejoin:round;stroke-miterlimit:10}</style><g id="g2467" transform="translate(10 421.925)"><path id="path2469" d="M3.3-301.8v442.5c0 29.5 23.9 53.3 53.3 53.3H606c29.5 0 53.3-23.9 53.3-53.3v-442.5c0-29.5-23.9-53.3-53.3-53.3H56.7c-29.5-.1-53.4 23.8-53.4 53.3" fill="#fff"/></g><path class="st1" d="M44.9 66.8h99.6V198H13.3v-97.4zm592.9 0h-99.7V198h131.2v-97.4z"/><path id="rect48" class="st1" d="M144.5 329.2v131.2H13.3V329.2h131.2z"/><path id="rect56" class="st1" d="M275.7 198v131.2H144.5V198h131.2z"/><path id="rect60" class="st1" d="M275.7 460.4v131.2H144.5V460.4h131.2z"/><path id="rect64" class="st1" d="M406.9 66.8V198H275.7V66.8h131.2z"/><path id="rect68" class="st1" d="M406.9 329.2v131.2H275.7V329.2h131.2z"/><path id="rect76" class="st1" d="M538.1 198v131.2H406.9V198h131.2z"/><path id="rect80" class="st1" d="M538.1 460.4v131.2H406.9V460.4h131.2z"/><path id="rect88" class="st1" d="M669.3 329.2v131.2H538.1V329.2h131.2z"/><path fill="none" d="M0 0h682.7v682.7H0z"/><g id="g2471" transform="translate(502 90.063)"><path id="path2473" d="M167.3 472.5v-38.4l-239-239-330.6 330.6c.9.1 1.8.1 2.7.1H114c29.5.1 53.3-23.8 53.3-53.3" fill="#00a570"/></g><g id="g2475" transform="translate(21.707 61.787)"><path id="path2477" d="M7.2 538.5c9.7 9.7 23 15.6 37.7 15.6H439L215.3 330.4 7.2 538.5z" fill="#36d28f"/></g><g id="g2479" transform="translate(21.707 61.787)"><path id="path2481" class="st5" d="M7.2 538.5l208.1-208.1L343 458.1"/></g><g id="g2483" transform="translate(210.085 185.537)"><path id="path2485" class="st5" d="M70 249.7L220.2 99.6l234.7 234.7"/></g><g id="g2487" transform="translate(201.35 343.047)"><path id="path2489" d="M34.3-131.8c0 32-26 58-58 58s-58-26-58-58 26-58 58-58 58 26 58 58" fill="#ffb954"/></g><g id="g2491" transform="translate(201.35 343.047)"><path id="path2493" class="st5" d="M34.3-131.8c0 32-26 58-58 58s-58-26-58-58 26-58 58-58 58 26 58 58z"/></g><g id="g2499" transform="translate(304.333 461.925)"><path id="path2501" class="st5" d="M101.4-395.2h-339.1c-29.5 0-53.3 23.9-53.3 53.3v442.5c0 29.5 23.9 53.3 53.3 53.3h549.3c29.5 0 53.3-23.9 53.3-53.3v-442.5c0-29.5-23.9-53.3-53.3-53.3H202.8"/></g><path d="M807.4 434V224h94.5c13.4 0 25.5 2.9 36.4 8.7 10.9 5.8 19.4 13.8 25.7 23.8 6.2 10.1 9.3 21.6 9.3 34.4 0 13.2-3.1 25.1-9.3 35.6-6.2 10.5-14.7 18.8-25.5 24.8s-23 9-36.6 9H856V434h-48.6zM856 321.2h41.4c5.2 0 9.8-1.1 13.6-3.5 3.9-2.3 6.9-5.5 9-9.8 2.1-4.2 3.2-9 3.2-14.4s-1.2-10.1-3.6-14.3c-2.4-4.1-5.8-7.2-10.3-9.5-4.5-2.2-10-3.3-16.3-3.3h-37v54.8zM923.8 434l-53.4-94.8 52.2-7.5L982 434h-58.2zm159 3c-17.6 0-32.9-3.5-45.9-10.7-13-7.1-23.1-16.8-30.3-29.1s-10.8-26.3-10.8-42.1c0-12.2 2-23.4 6-33.6 4-10.2 9.6-19 16.8-26.5s15.8-13.3 25.7-17.4c9.9-4.1 20.7-6.1 32.5-6.1 11.2 0 21.5 2 30.8 6s17.3 9.6 24.1 16.8c6.8 7.2 12 15.7 15.6 25.5 3.6 9.8 5.2 20.5 4.8 32.1l-.3 12.9h-126.9l-6.9-27h94.8l-5.1 5.7v-6c-.4-5-1.9-9.4-4.6-13.4-2.7-3.9-6.3-6.9-10.7-9.1-4.4-2.2-9.4-3.3-15-3.3-7.8 0-14.5 1.6-20 4.6-5.5 3.1-9.7 7.6-12.4 13.5-2.8 5.9-4.2 13.2-4.2 21.8 0 8.8 1.8 16.5 5.5 23s9.1 11.5 16.2 15.1c7.1 3.6 15.5 5.4 25.3 5.4 6.8 0 12.8-1 18.2-3 5.3-2 11-5.4 17.3-10.2l22.5 31.8c-6.2 5.4-12.8 9.8-19.8 13.2-7 3.4-14.2 6-21.5 7.7-7.3 1.5-14.5 2.4-21.7 2.4zm99.6-3V274.7h45.6l1.5 28.8-6.3.3c2.4-5.2 5.4-9.8 9.2-13.8 3.7-4 7.9-7.4 12.6-10 4.7-2.7 9.6-4.7 14.7-6.2 5.1-1.4 10.2-2.1 15.5-2.1 7.8 0 14.9 1.2 21.3 3.6 6.4 2.4 12 6.3 16.8 11.6 4.8 5.3 8.6 12.4 11.4 21.4l-7.5-.6 2.4-4.8c2.6-4.8 5.9-9.1 10.1-13 4.1-3.9 8.6-7.2 13.6-9.9s10.2-4.7 15.6-6.2c5.4-1.4 10.6-2.1 15.6-2.1 12.6 0 23.1 2.5 31.5 7.3 8.4 4.9 14.7 12.3 19 22.1 4.3 9.8 6.5 21.7 6.5 35.7V434h-48.3v-93.3c0-6.4-.9-11.7-2.7-15.9-1.8-4.2-4.5-7.3-8-9.4-3.5-2.1-7.9-3.1-13-3.1-4.2 0-8.1.7-11.5 2.1-3.5 1.4-6.5 3.3-9 5.7-2.5 2.4-4.5 5.2-5.9 8.4-1.4 3.2-2.1 6.8-2.1 10.8V434h-48.3v-93.6c0-6-.9-11.1-2.7-15.3-1.8-4.2-4.5-7.4-8.1-9.6-3.6-2.2-7.8-3.3-12.6-3.3-4.2 0-8.1.7-11.5 2.1-3.5 1.4-6.5 3.3-9 5.7-2.5 2.4-4.5 5.2-5.8 8.4-1.4 3.2-2.1 6.7-2.1 10.5V434h-48.5zm363.9 3c-16.6 0-31.3-3.6-44.3-10.8-12.9-7.2-23.1-17-30.6-29.4-7.5-12.4-11.3-26.6-11.3-42.6s3.8-30.2 11.3-42.6c7.5-12.4 17.7-22.2 30.6-29.4 12.9-7.2 27.6-10.8 44.3-10.8 16.6 0 31.4 3.6 44.3 10.8 12.9 7.2 23 17 30.5 29.4 7.4 12.4 11.1 26.6 11.1 42.6s-3.7 30.2-11.1 42.6c-7.4 12.4-17.5 22.2-30.5 29.4-13 7.2-27.7 10.8-44.3 10.8zm0-41.4c7.2 0 13.6-1.8 19.2-5.4 5.6-3.6 10-8.5 13.2-14.7 3.2-6.2 4.7-13.3 4.5-21.3.2-8-1.3-15.2-4.5-21.5-3.2-6.3-7.6-11.3-13.2-14.9-5.6-3.6-12-5.4-19.2-5.4s-13.6 1.8-19.3 5.4-10.2 8.6-13.4 14.9c-3.2 6.3-4.7 13.5-4.5 21.5-.2 8 1.3 15.1 4.5 21.3 3.2 6.2 7.7 11.1 13.4 14.7 5.6 3.6 12.1 5.4 19.3 5.4zM1708 434l-66.6-159.3h53.1l39.6 119.1-11.7 1.2 40.8-120.3h52.5L1745.8 434H1708zm204 3c-17.6 0-32.9-3.5-45.9-10.7-13-7.1-23.1-16.8-30.3-29.1s-10.8-26.3-10.8-42.1c0-12.2 2-23.4 6-33.6 4-10.2 9.6-19 16.8-26.5s15.8-13.3 25.7-17.4c9.9-4.1 20.7-6.1 32.5-6.1 11.2 0 21.5 2 30.8 6s17.3 9.6 24.1 16.8c6.8 7.2 12 15.7 15.6 25.5 3.6 9.8 5.2 20.5 4.8 32.1l-.3 12.9h-126.9l-6.9-27h94.8l-5.1 5.7v-6c-.4-5-1.9-9.4-4.6-13.4-2.7-3.9-6.3-6.9-10.7-9.1-4.4-2.2-9.4-3.3-15-3.3-7.8 0-14.5 1.6-20 4.6-5.5 3.1-9.7 7.6-12.4 13.5-2.8 5.9-4.2 13.2-4.2 21.8 0 8.8 1.8 16.5 5.5 23s9.1 11.5 16.2 15.1c7.1 3.6 15.5 5.4 25.3 5.4 6.8 0 12.8-1 18.2-3 5.3-2 11-5.4 17.3-10.2l22.5 31.8c-6.2 5.4-12.8 9.8-19.8 13.2-7 3.4-14.2 6-21.5 7.7-7.3 1.5-14.5 2.4-21.7 2.4zm105-3V224h92.7c14.4 0 26.6 2.1 36.6 6.1 10 4.1 17.5 10 22.6 17.7 5.1 7.7 7.7 16.9 7.7 27.8 0 12-3 22.1-8.8 30.3-5.9 8.2-14.5 13.7-25.7 16.5l-.6-5.7c9.4 2 17.5 5.5 24.4 10.5 6.9 5 12.2 11.2 16.1 18.4 3.8 7.3 5.7 15.6 5.7 24.8 0 10.6-1.8 19.9-5.4 27.8-3.6 7.9-8.8 14.5-15.6 19.9-6.8 5.4-14.8 9.4-23.8 12-9.1 2.6-19.2 3.9-30.2 3.9H2017zm48-125.7h37.5c5.2 0 9.6-.8 13.3-2.5 3.7-1.7 6.5-4.1 8.4-7.2 1.9-3.1 2.8-6.8 2.8-11.3 0-6.4-2.2-11.4-6.6-15.1-4.4-3.7-11-5.5-19.8-5.5H2065v41.6zm0 83.1h45.9c5.6 0 10.4-.9 14.3-2.7 3.9-1.8 6.9-4.4 9.2-8 2.2-3.5 3.3-7.7 3.3-12.8 0-4.6-1.2-8.5-3.5-11.7-2.3-3.2-5.5-5.6-9.8-7.3-4.2-1.7-9.2-2.6-15-2.6H2065v45.1zm259.8 45.6c-16.8 0-32-2.7-45.6-8.1-13.6-5.4-25.3-13-35.1-22.8s-17.3-21.3-22.5-34.6c-5.2-13.3-7.8-27.8-7.8-43.4s2.7-29.9 8.3-43.1c5.5-13.1 13.3-24.5 23.5-34.3 10.2-9.8 22.2-17.4 36.1-22.8 13.9-5.4 29-8.1 45.5-8.1 11.6 0 22.5 1.5 32.9 4.5 10.3 3 19.6 7.1 28 12.3 8.4 5.2 15.5 11.2 21.3 18l-30.9 32.7c-5-4.8-10.2-8.8-15.4-12-5.3-3.2-11-5.7-17-7.6-6-1.9-12.4-2.9-19.2-2.9-8.8 0-16.9 1.6-24.2 4.8-7.3 3.2-13.7 7.6-19.2 13.4-5.5 5.7-9.8 12.4-12.8 20.1-3 7.7-4.5 16.1-4.5 25.1s1.6 17.4 4.8 25.2c3.2 7.8 7.6 14.6 13.2 20.3 5.6 5.7 12.2 10.2 19.9 13.5 7.7 3.3 15.9 5 24.8 5 6.2 0 12-1 17.6-3 5.5-2 10.2-4.7 14.3-8.1 4-3.4 7.2-7.4 9.6-12.2 2.4-4.7 3.6-9.8 3.6-15.1V346l6.6 10.2h-57.9v-39.9h98.7c.4 2.2.7 5.2.9 9 .2 3.8.3 7.5.4 11.1.1 3.6.2 6.3.2 8.1 0 13.6-2.5 26.1-7.3 37.4-4.9 11.3-11.8 21.1-20.6 29.3s-19.2 14.6-31.2 19.2c-12 4.3-25 6.6-39 6.6z"/></svg>