<svg version="1.1" id="svg2451" xmlns="http://www.w3.org/2000/svg" x="0" y="0" viewBox="0 0 682.7 682.7" xml:space="preserve"><style>.st1{fill:#969696}.st5{fill:none;stroke:#000;stroke-width:20;stroke-linecap:round;stroke-linejoin:round;stroke-miterlimit:10}</style><g id="g2467" transform="translate(10 421.925)"><path id="path2469" d="M3.3-301.8v442.5c0 29.5 23.9 53.3 53.3 53.3H606c29.5 0 53.3-23.9 53.3-53.3v-442.5c0-29.5-23.9-53.3-53.3-53.3H56.7c-29.5-.1-53.4 23.8-53.4 53.3" fill="#fff"/></g><path class="st1" d="M44.9 66.8h99.6V198H13.3v-97.4zm592.9 0h-99.7V198h131.2v-97.4z"/><path id="rect48" class="st1" d="M144.5 329.2v131.2H13.3V329.2h131.2z"/><path id="rect56" class="st1" d="M275.7 198v131.2H144.5V198h131.2z"/><path id="rect60" class="st1" d="M275.7 460.4v131.2H144.5V460.4h131.2z"/><path id="rect64" class="st1" d="M406.9 66.8V198H275.7V66.8h131.2z"/><path id="rect68" class="st1" d="M406.9 329.2v131.2H275.7V329.2h131.2z"/><path id="rect76" class="st1" d="M538.1 198v131.2H406.9V198h131.2z"/><path id="rect80" class="st1" d="M538.1 460.4v131.2H406.9V460.4h131.2z"/><path id="rect88" class="st1" d="M669.3 329.2v131.2H538.1V329.2h131.2z"/><path fill="none" d="M0 0h682.7v682.7H0z"/><g id="g2471" transform="translate(502 90.063)"><path id="path2473" d="M167.3 472.5v-38.4l-239-239-330.6 330.6c.9.1 1.8.1 2.7.1H114c29.5.1 53.3-23.8 53.3-53.3" fill="#00a570"/></g><g id="g2475" transform="translate(21.707 61.787)"><path id="path2477" d="M7.2 538.5c9.7 9.7 23 15.6 37.7 15.6H439L215.3 330.4 7.2 538.5z" fill="#36d28f"/></g><g id="g2479" transform="translate(21.707 61.787)"><path id="path2481" class="st5" d="M7.2 538.5l208.1-208.1L343 458.1"/></g><g id="g2483" transform="translate(210.085 185.537)"><path id="path2485" class="st5" d="M70 249.7L220.2 99.6l234.7 234.7"/></g><g id="g2487" transform="translate(201.35 343.047)"><path id="path2489" d="M34.3-131.8c0 32-26 58-58 58s-58-26-58-58 26-58 58-58 58 26 58 58" fill="#ffb954"/></g><g id="g2491" transform="translate(201.35 343.047)"><path id="path2493" class="st5" d="M34.3-131.8c0 32-26 58-58 58s-58-26-58-58 26-58 58-58 58 26 58 58z"/></g><g id="g2499" transform="translate(304.333 461.925)"><path id="path2501" class="st5" d="M101.4-395.2h-339.1c-29.5 0-53.3 23.9-53.3 53.3v442.5c0 29.5 23.9 53.3 53.3 53.3h549.3c29.5 0 53.3-23.9 53.3-53.3v-442.5c0-29.5-23.9-53.3-53.3-53.3H202.8"/></g></svg>