<?xml version="1.0" encoding="utf-8"?><!DOCTYPE svg PUBLIC "-//W3C//DTD SVG 1.1//EN" "http://www.w3.org/Graphics/SVG/1.1/DTD/svg11.dtd"><svg viewBox="0 0 800 800" xmlns="http://www.w3.org/2000/svg" xmlns:xlink="http://www.w3.org/1999/xlink"><style>:root>svg{display:none}:root>svg:target{display:block}</style><svg clip-rule="evenodd" fill-rule="evenodd" stroke-linejoin="round" stroke-miterlimit="2" viewBox="0 0 24 24" id="icon-background" xmlns="http://www.w3.org/2000/svg"><g fill="currentColor"><path d="M22.75 10A2.75 2.75 0 0020 7.25H10A2.75 2.75 0 007.25 10v10A2.75 2.75 0 0010 22.75h10A2.75 2.75 0 0022.75 20zm-1.5 0v10c0 .69-.56 1.25-1.25 1.25H10c-.69 0-1.25-.56-1.25-1.25V10c0-.69.56-1.25 1.25-1.25h10c.69 0 1.25.56 1.25 1.25zM6.25 13.811L3.381 16.68c.199.046.406.07.619.07h2.25zm.313-5.313L1.25 13.811V14c0 .744.295 1.419.775 1.914l4.225-4.225V10c0-.534.112-1.043.313-1.502zm5.126-7.248L1.25 11.689V8.811L8.811 1.25zm-5 0H4A2.75 2.75 0 001.25 4v2.689zm1.809 5.313A3.739 3.739 0 0110 6.25h1.689l4.225-4.225A2.74 2.74 0 0014 1.25h-.189zm5.313-.313h2.939V4c0-.213-.024-.42-.07-.619z"/></g></svg><svg viewBox="0 0 451.847 451.847" id="icon-caret" xmlns="http://www.w3.org/2000/svg"><path d="M225.923 354.706c-8.098 0-16.195-3.092-22.369-9.263L9.27 151.157c-12.359-12.359-12.359-32.397 0-44.751 12.354-12.354 32.388-12.354 44.748 0l171.905 171.915 171.906-171.909c12.359-12.354 32.391-12.354 44.744 0 12.365 12.354 12.365 32.392 0 44.751L248.292 345.449c-6.177 6.172-14.274 9.257-22.369 9.257z"/></svg><svg viewBox="0 0 512 512" id="icon-erase" xmlns="http://www.w3.org/2000/svg"><path d="M256 0C114.853 0 0 114.833 0 256s114.853 256 256 256c141.167 0 256-114.833 256-256S397.147 0 256 0zm0 472.341c-119.295 0-216.341-97.046-216.341-216.341S136.705 39.659 256 39.659 472.341 136.705 472.341 256 375.295 472.341 256 472.341z" fill="currentColor"/><path d="M355.148 234.386H156.852c-10.946 0-19.83 8.884-19.83 19.83s8.884 19.83 19.83 19.83h198.296c10.946 0 19.83-8.884 19.83-19.83s-8.884-19.83-19.83-19.83z" fill="currentColor"/></svg><svg viewBox="0 0 553.156 553.156" id="icon-left-right-arrows" xmlns="http://www.w3.org/2000/svg"><g fill="#fff"><path d="M545.326 265.792l-130.92-74.701c-10.44-5.955-18.904-1.041-18.904 10.979v149.01c0 12.02 8.464 16.935 18.904 10.979l130.92-74.694c10.441-5.961 10.441-15.619 0-21.573zM138.75 191.091L7.831 265.792c-10.441 5.955-10.441 15.618 0 21.573l130.919 74.7c10.441 5.955 18.905 1.041 18.905-10.979V202.07c-.007-12.02-8.464-16.934-18.905-10.979z"/></g></svg><svg viewBox="0 -192 426.667 426" id="icon-minus" xmlns="http://www.w3.org/2000/svg"><path d="M405.332 43h-384C9.559 43 0 33.441 0 21.668 0 9.891 9.559.332 21.332.332h384c11.777 0 21.336 9.559 21.336 21.336 0 11.773-9.559 21.332-21.336 21.332zm0 0" fill="currentColor"/></svg><svg viewBox="0 0 426.667 426.667" id="icon-plus" xmlns="http://www.w3.org/2000/svg"><path d="M405.332 192H234.668V21.332C234.668 9.559 225.109 0 213.332 0 201.559 0 192 9.559 192 21.332V192H21.332C9.559 192 0 201.559 0 213.332c0 11.777 9.559 21.336 21.332 21.336H192v170.664c0 11.777 9.559 21.336 21.332 21.336 11.777 0 21.336-9.559 21.336-21.336V234.668h170.664c11.777 0 21.336-9.559 21.336-21.336 0-11.773-9.559-21.332-21.336-21.332zm0 0" fill="currentColor"/></svg><svg viewBox="0 0 24 24" id="icon-redo" xmlns="http://www.w3.org/2000/svg"><path d="M17.64 4.29a1 1 0 00-1.41 1.42L19.57 9H9.43a6.49 6.49 0 000 13h2.51a1 1 0 000-2H9.43a4.49 4.49 0 110-9h10.13l-3.32 3.27a1 1 0 000 1.41 1 1 0 00.71.3 1 1 0 00.7-.29l5.06-5A1 1 0 0023 10a1 1 0 00-.3-.71z" fill="currentColor"/></svg><svg viewBox="0 0 512 512" id="icon-restore" xmlns="http://www.w3.org/2000/svg"><path d="M256 0C114.833 0 0 114.833 0 256s114.833 256 256 256 256-114.853 256-256S397.167 0 256 0zm0 472.341c-119.275 0-216.341-97.046-216.341-216.341S136.725 39.659 256 39.659 472.341 136.705 472.341 256 375.295 472.341 256 472.341z" fill="currentColor"/><path d="M355.148 234.386H275.83v-79.318c0-10.946-8.864-19.83-19.83-19.83s-19.83 8.884-19.83 19.83v79.318h-79.318c-10.966 0-19.83 8.884-19.83 19.83s8.864 19.83 19.83 19.83h79.318v79.318c0 10.946 8.864 19.83 19.83 19.83s19.83-8.884 19.83-19.83v-79.318h79.318c10.966 0 19.83-8.884 19.83-19.83s-8.864-19.83-19.83-19.83z" fill="currentColor"/></svg><svg viewBox="0 -10 511.987 511" id="icon-star" xmlns="http://www.w3.org/2000/svg"><path d="M114.594 491.14c-5.61 0-11.18-1.75-15.934-5.187a27.223 27.223 0 01-10.582-28.094l32.938-145.09L9.312 214.81a27.188 27.188 0 01-7.976-28.907 27.208 27.208 0 0123.402-18.71l147.797-13.419L230.97 17.027C235.277 6.98 245.089.492 255.992.492s20.715 6.488 25.024 16.512l58.433 136.77 147.774 13.417c10.882.98 20.054 8.344 23.425 18.711 3.372 10.368.254 21.739-7.957 28.907L390.988 312.75l32.938 145.086c2.414 10.668-1.727 21.7-10.578 28.098-8.832 6.398-20.61 6.89-29.91 1.3l-127.446-76.16-127.445 76.203c-4.309 2.559-9.11 3.864-13.953 3.864zm141.398-112.874c4.844 0 9.64 1.3 13.953 3.859l120.278 71.938-31.086-136.942a27.21 27.21 0 018.62-26.516l105.473-92.5-139.543-12.671a27.18 27.18 0 01-22.613-16.493L255.992 39.895 200.844 168.96c-3.883 9.195-12.524 15.512-22.547 16.43L38.734 198.062l105.47 92.5c7.554 6.614 10.858 16.77 8.62 26.54l-31.062 136.937 120.277-71.914c4.309-2.559 9.11-3.86 13.953-3.86zm-84.586-221.848s0 .023-.023.043zm169.13-.063l.023.043c0-.023 0-.023-.024-.043zm0 0" fill="#ffc107"/></svg><svg viewBox="0 -10 511.987 511" id="icon-star-filled" xmlns="http://www.w3.org/2000/svg"><path d="M510.652 185.902a27.158 27.158 0 00-23.425-18.71l-147.774-13.419-58.433-136.77C276.71 6.98 266.898.494 255.996.494s-20.715 6.487-25.023 16.534l-58.434 136.746-147.797 13.418A27.208 27.208 0 001.34 185.902c-3.371 10.368-.258 21.739 7.957 28.907l111.7 97.96-32.938 145.09c-2.41 10.668 1.73 21.696 10.582 28.094 4.757 3.438 10.324 5.188 15.937 5.188 4.84 0 9.64-1.305 13.95-3.883l127.468-76.184 127.422 76.184c9.324 5.61 21.078 5.097 29.91-1.305a27.223 27.223 0 0010.582-28.094l-32.937-145.09 111.699-97.94a27.224 27.224 0 007.98-28.927zm0 0" fill="#ffc107"/></svg><svg viewBox="0 0 315 315" id="icon-trash" xmlns="http://www.w3.org/2000/svg"><g fill="currentColor"><path d="M256.774 23.942h-64.836v-6.465C191.938 7.841 184.194 0 174.675 0h-34.348c-9.521 0-17.266 7.841-17.266 17.478v6.465H58.226c-9.619 0-17.445 7.76-17.445 17.297v11.429c0 7.168 4.42 13.33 10.698 15.951 1.989 39.623 13.5 231.193 14.018 239.801a7 7 0 006.987 6.58h170.033a6.999 6.999 0 006.987-6.58c.518-8.607 12.028-200.178 14.018-239.801 6.278-2.621 10.698-8.783 10.698-15.951v-11.43c0-9.537-7.826-17.297-17.446-17.297zm-119.713-6.464c0-1.918 1.465-3.478 3.266-3.478h34.348c1.8 0 3.264 1.56 3.264 3.478v6.465h-40.877v-6.465zM54.779 41.239c0-1.818 1.546-3.297 3.445-3.297h198.549c1.899 0 3.445 1.478 3.445 3.297v11.429c0 1.819-1.546 3.299-3.445 3.299H58.225c-1.899 0-3.445-1.479-3.445-3.299V41.239zM235.922 301H79.074c-2.055-34.247-11.479-191.674-13.51-231.033h183.867C247.4 109.326 237.977 266.753 235.922 301z"/><path d="M157.5 95.125a7 7 0 00-7 7v176.109a7 7 0 1014 0V102.125a7 7 0 00-7-7zM110.2 102.04c-.202-3.86-3.507-6.837-7.355-6.625a6.999 6.999 0 00-6.625 7.355l9.182 175.829a7 7 0 1013.98-.73L110.2 102.04zM212.155 95.415c-3.899-.223-7.153 2.764-7.355 6.625l-9.184 175.829a6.999 6.999 0 006.996 7.365 7 7 0 006.984-6.635l9.184-175.829a6.998 6.998 0 00-6.625-7.355z"/></g></svg><svg viewBox="0 0 24 24" id="icon-undo" xmlns="http://www.w3.org/2000/svg"><path d="M7 16a1 1 0 00.71-.3 1 1 0 000-1.41L4.38 11h10.13a4.49 4.49 0 010 9H12a1 1 0 000 2h2.51a6.49 6.49 0 000-13H4.37L7.7 5.71a1 1 0 00-1.4-1.42l-5.07 5a1 1 0 00-.29.71 1 1 0 00.3.71l5.06 5A1 1 0 007 16z" fill="currentColor"/></svg></svg>